<svg width="30" height="36" viewBox="0 0 30 36" fill="none" xmlns="http://www.w3.org/2000/svg">
<path fill-rule="evenodd" clip-rule="evenodd" d="M6.23085 6C4.51909 6 3.25247 7.50462 3.30919 9.13634C3.36362 10.704 3.2929 12.7343 2.78395 14.39C2.27319 16.0504 1.40999 17.1026 -0.000244141 17.2376V18.7624C1.40999 18.8977 2.27319 19.9494 2.7839 21.61C3.2929 23.2657 3.36356 25.296 3.30913 26.8637C3.25241 28.4951 4.51903 30 6.23108 30H23.7709C25.4827 30 26.7491 28.4954 26.6924 26.8637C26.6379 25.296 26.7087 23.2657 27.2176 21.61C27.7284 19.9494 28.5895 18.8973 29.9998 18.7624V17.2376C28.5895 17.1023 27.7284 16.0506 27.2176 14.39C26.7086 12.7345 26.6379 10.704 26.6924 9.13634C26.7491 7.50485 25.4827 6 23.7709 6H6.23062H6.23085ZM20.3388 20.7736C20.3388 23.0204 18.67 24.383 15.9005 24.383H11.1862C11.0513 24.383 10.922 24.3292 10.8266 24.2334C10.7313 24.1377 10.6777 24.0078 10.6777 23.8724V12.1277C10.6777 11.9923 10.7313 11.8624 10.8266 11.7666C10.922 11.6708 11.0513 11.617 11.1862 11.617H15.8737C18.1829 11.617 19.6984 12.8732 19.6984 14.8019C19.6984 16.1556 18.6789 17.3674 17.3801 17.5797V17.6504C19.1482 17.8451 20.3388 19.0749 20.3388 20.7736V20.7736ZM15.3865 13.2358H12.6984V17.0488H14.9624C16.7126 17.0488 17.6777 16.341 17.6777 15.076C17.6775 13.8904 16.8478 13.2358 15.3865 13.2358ZM12.6984 18.5617V22.7638H15.4854C17.3076 22.7638 18.2729 22.0295 18.2729 20.6495C18.2729 19.2695 17.2806 18.5615 15.3682 18.5615H12.6984V18.5617Z" fill="#7952B3"/>
</svg>
