<svg width="27" height="36" viewBox="0 0 27 36" fill="none" xmlns="http://www.w3.org/2000/svg">
<path d="M26.9998 3L24.54 29.9969L13.4832 33L2.45692 30.0011L-0.000244141 3H26.9998Z" fill="#264DE4"/>
<path d="M22.4342 28.2776L24.5362 5.20752H13.4998V30.7043L22.4342 28.2776Z" fill="#2965F1"/>
<path d="M5.63281 15.2222L5.93576 18.5337H13.4998V15.2222H5.63281Z" fill="#EBEBEB"/>
<path d="M13.4997 8.51953H13.488H5.02393L5.33119 11.8311H13.4997V8.51953Z" fill="#EBEBEB"/>
<path d="M13.4997 27.268V23.8226L13.4849 23.8265L9.72042 22.8306L9.47978 20.1895H7.65054H6.08667L6.56022 25.3891L13.4841 27.2722L13.4997 27.268Z" fill="#EBEBEB"/>
<path d="M17.6503 18.5338L17.2579 22.8286L13.488 23.8255V27.2708L20.4175 25.3893L20.4683 24.8298L21.2626 16.1115L21.3451 15.2222L21.9553 8.51953H13.488V11.8311H18.251L17.9434 15.2222H13.488V18.5338H17.6503Z" fill="white"/>
</svg>
