<svg width="29" height="36" viewBox="0 0 29 36" fill="none" xmlns="http://www.w3.org/2000/svg">
<path d="M10.5036 9.44819C6.53722 8.73417 3.40105 9.48168 2.15116 11.6212C1.21847 13.2178 1.48472 15.335 2.79735 17.598C2.82391 17.6439 2.85934 17.6841 2.90163 17.7164C2.94393 17.7487 2.99224 17.7724 3.04382 17.7863C3.0954 17.8001 3.14923 17.8037 3.20224 17.797C3.25525 17.7903 3.30639 17.7732 3.35274 17.747C3.44635 17.6939 3.51481 17.6062 3.54306 17.5033C3.57131 17.4003 3.55705 17.2905 3.50341 17.1979C2.32088 15.1596 2.09042 13.3325 2.8557 12.0232C3.89387 10.2458 6.69091 9.57907 10.3576 10.2393C10.4239 10.2522 10.4924 10.2487 10.5569 10.2289C10.6215 10.2091 10.68 10.1738 10.7273 10.1261C10.7745 10.0784 10.8091 10.0198 10.8277 9.95559C10.8463 9.8914 10.8485 9.82363 10.834 9.7584C10.8165 9.67998 10.7756 9.60853 10.7167 9.55326C10.6577 9.49799 10.5834 9.46142 10.5032 9.44827L10.5036 9.44819ZM4.85996 20.3485C6.46364 22.0906 8.54729 23.7245 10.9236 25.0807C16.677 28.3641 22.8022 29.2417 25.8208 27.2071C25.9077 27.1462 25.967 27.054 25.9859 26.9503C26.0047 26.8466 25.9817 26.7397 25.9216 26.6527C25.8616 26.5656 25.7694 26.5053 25.6649 26.4848C25.5604 26.4642 25.4518 26.485 25.3627 26.5427C22.6609 28.3637 16.8425 27.5299 11.3304 24.3844C9.02488 23.0686 7.00739 21.4866 5.46175 19.8076C5.408 19.7473 5.33723 19.7043 5.25855 19.6841C5.17988 19.6639 5.09689 19.6675 5.02027 19.6943C4.95659 19.7167 4.89955 19.7544 4.8543 19.804C4.80905 19.8536 4.77703 19.9136 4.76112 19.9786C4.74521 20.0435 4.74591 20.1113 4.76317 20.1759C4.78043 20.2405 4.81369 20.2998 4.85996 20.3485V20.3485Z" fill="#2DD0ED"/>
<path d="M24.8584 19.8592C27.4555 16.8268 28.3624 13.7766 27.1152 11.6413C26.1974 10.0702 24.257 9.24065 21.6786 9.20755C21.5708 9.20618 21.4668 9.24719 21.3895 9.32156C21.3122 9.39593 21.2679 9.49759 21.2664 9.6042C21.2652 9.68374 21.288 9.76183 21.3318 9.82856C21.3756 9.89528 21.4385 9.94763 21.5125 9.97894C21.5616 9.99981 21.6144 10.0109 21.6678 10.0116C23.9869 10.0413 25.6587 10.7561 26.4108 12.0434C27.4465 13.817 26.638 16.5371 24.2376 19.3399C24.2018 19.38 24.1745 19.4268 24.1573 19.4774C24.1401 19.5281 24.1332 19.5816 24.1372 19.6349C24.1412 19.6882 24.1559 19.7402 24.1804 19.7878C24.205 19.8355 24.2389 19.8778 24.2802 19.9123C24.3215 19.9467 24.3694 19.9727 24.4209 19.9887C24.4725 20.0047 24.5267 20.0104 24.5806 20.0054C24.6344 20.0005 24.6867 19.985 24.7344 19.9599C24.7821 19.9348 24.8242 19.9006 24.8584 19.8592V19.8592ZM18.184 9.5819C15.8357 10.0793 13.3364 11.0516 10.9362 12.4212C4.99641 15.8108 1.12182 20.8084 1.66015 24.4326C1.66685 24.4857 1.68421 24.537 1.71122 24.5834C1.73824 24.6298 1.77436 24.6704 1.81747 24.7028C1.86057 24.7352 1.9098 24.7588 1.96225 24.7722C2.0147 24.7855 2.06933 24.7884 2.12292 24.7806C2.17651 24.7728 2.22798 24.7545 2.27432 24.7268C2.32067 24.6991 2.36094 24.6625 2.39278 24.6192C2.42462 24.5759 2.44739 24.5267 2.45974 24.4746C2.4721 24.4225 2.4738 24.3684 2.46474 24.3156C1.98715 21.0981 5.65966 16.3605 11.3426 13.1176C13.6711 11.7887 16.0914 10.8476 18.3545 10.3679C18.4568 10.3425 18.5451 10.2788 18.6008 10.1903C18.6565 10.1018 18.6753 9.99542 18.6532 9.89351C18.6311 9.7916 18.5698 9.70215 18.4823 9.64402C18.3947 9.5859 18.2878 9.56362 18.184 9.5819Z" fill="#2DD0ED"/>
<path d="M8.56127 26.945C9.91974 30.6923 12.1408 32.9999 14.639 32.9999C16.4606 32.9999 18.1461 31.7727 19.4606 29.6116C19.49 29.5663 19.51 29.5157 19.5193 29.4626C19.5286 29.4096 19.5271 29.3552 19.5148 29.3028C19.4994 29.2371 19.4675 29.1763 19.4221 29.126C19.3766 29.0757 19.3191 29.0374 19.2548 29.0149C19.1906 28.9923 19.1215 28.9861 19.0542 28.9968C18.9868 29.0075 18.9233 29.0348 18.8694 29.0761C18.8263 29.1091 18.7905 29.1503 18.7638 29.1972C17.5824 31.1394 16.1313 32.1963 14.639 32.1963C12.5643 32.1963 10.5827 30.1379 9.32736 26.6738C9.31013 26.623 9.28285 26.5762 9.24712 26.536C9.21138 26.4958 9.1679 26.463 9.11921 26.4396C9.0705 26.4163 9.01758 26.4027 8.96353 26.3998C8.90947 26.397 8.85539 26.4049 8.80445 26.4229C8.7535 26.441 8.70672 26.4689 8.66682 26.5051C8.62693 26.5413 8.59473 26.5849 8.5721 26.6335C8.54947 26.6821 8.53688 26.7347 8.53504 26.7882C8.53328 26.8417 8.54233 26.895 8.56167 26.945H8.56127ZM20.965 26.2116C21.6679 23.9918 22.0452 21.4302 22.0452 18.7609C22.0452 12.1011 19.6871 6.35977 16.3279 4.88546C16.2297 4.84464 16.1193 4.84351 16.0203 4.88229C15.9213 4.92108 15.8416 4.9967 15.7984 5.09291C15.7551 5.18913 15.7518 5.29825 15.7891 5.39686C15.8264 5.49547 15.9013 5.57569 15.9978 5.62029C18.9938 6.93536 21.232 12.3839 21.232 18.7609C21.232 21.3502 20.8661 23.831 20.1889 25.9716C20.1713 26.0224 20.1643 26.0761 20.1681 26.1296C20.1719 26.1831 20.1866 26.2353 20.2112 26.2831C20.2482 26.3551 20.3063 26.4145 20.3779 26.4534C20.4495 26.4923 20.5314 26.509 20.6127 26.5013C20.6941 26.4936 20.7712 26.4618 20.834 26.4102C20.8969 26.3585 20.9425 26.2893 20.965 26.2116V26.2116ZM28.625 25.8181C28.6266 25.5644 28.5775 25.3129 28.4804 25.078C28.3833 24.8431 28.2401 24.6296 28.0592 24.4496C27.8783 24.2697 27.6631 24.1268 27.4262 24.0294C27.1892 23.9319 26.935 23.8817 26.6783 23.8817C26.4217 23.8817 26.1675 23.9319 25.9305 24.0294C25.6935 24.1269 25.4784 24.2697 25.2975 24.4497C25.1166 24.6296 24.9734 24.8432 24.8764 25.0781C24.7793 25.3129 24.7301 25.5644 24.7318 25.8182C24.7351 26.3263 24.9416 26.8125 25.3063 27.1707C25.6711 27.5289 26.1643 27.7299 26.6784 27.7299C27.1925 27.7298 27.6858 27.5288 28.0505 27.1706C28.4152 26.8125 28.6217 26.3262 28.625 25.8181ZM27.8114 25.8181C27.8114 26.1151 27.692 26.3999 27.4795 26.6099C27.267 26.82 26.9788 26.938 26.6783 26.938C26.4543 26.938 26.2352 26.8723 26.0489 26.7493C25.8626 26.6262 25.7174 26.4513 25.6316 26.2467C25.5459 26.042 25.5234 25.8169 25.5672 25.5997C25.6109 25.3824 25.7188 25.1829 25.8772 25.0263C26.0357 24.8697 26.2376 24.763 26.4574 24.7198C26.6771 24.6766 26.9049 24.6987 27.112 24.7835C27.319 24.8682 27.496 25.0118 27.6205 25.1959C27.745 25.3801 27.8114 25.5966 27.8114 25.8181V25.8181ZM2.57162 27.7421C2.82726 27.7422 3.08041 27.6924 3.3166 27.5957C3.55279 27.4991 3.76739 27.3573 3.94816 27.1787C4.12893 27 4.27231 26.7879 4.37013 26.5544C4.46794 26.321 4.51827 26.0708 4.51824 25.8181C4.51826 25.5654 4.46792 25.3152 4.3701 25.0817C4.27227 24.8483 4.12888 24.6362 3.94811 24.4575C3.76733 24.2788 3.55272 24.1371 3.31653 24.0404C3.08034 23.9437 2.82719 23.894 2.57154 23.894C2.31591 23.894 2.06278 23.9438 1.8266 24.0405C1.59043 24.1371 1.37583 24.2789 1.19508 24.4575C1.01432 24.6362 0.870942 24.8483 0.773127 25.0818C0.675313 25.3152 0.624979 25.5654 0.625 25.8181C0.624979 26.0707 0.675316 26.321 0.773135 26.5544C0.870954 26.7879 1.01434 27 1.19511 27.1786C1.37587 27.3573 1.59047 27.499 1.82666 27.5957C2.06284 27.6924 2.31598 27.7422 2.57162 27.7421V27.7421ZM2.57162 26.938C2.27104 26.938 1.98277 26.82 1.77023 26.6099C1.55768 26.3999 1.43828 26.1149 1.43828 25.8178C1.43828 25.5207 1.55768 25.2358 1.77023 25.0257C1.98277 24.8156 2.27104 24.6976 2.57162 24.6976C2.8722 24.6976 3.16047 24.8156 3.37302 25.0257C3.58556 25.2358 3.70496 25.5207 3.70496 25.8178C3.70496 26.1149 3.58556 26.3999 3.37302 26.6099C3.16047 26.82 2.8722 26.938 2.57162 26.938V26.938Z" fill="#2DD0ED"/>
<path d="M14.6392 6.84811C15.0242 6.84814 15.4006 6.7353 15.7207 6.52387C16.0408 6.31244 16.2903 6.01191 16.4376 5.6603C16.56 5.36797 16.6077 5.05032 16.5762 4.73546C16.5448 4.42061 16.4354 4.11826 16.2575 3.8552C16.0797 3.59214 15.839 3.37648 15.5567 3.22731C15.2744 3.07814 14.9593 3.00006 14.6392 3C14.2541 2.99994 13.8778 3.11274 13.5576 3.32414C13.2374 3.53554 12.9879 3.83604 12.8406 4.18763C12.6932 4.53923 12.6547 4.92612 12.7298 5.29936C12.805 5.67261 12.9904 6.01544 13.2627 6.2845C13.4435 6.46317 13.6581 6.60489 13.8942 6.70158C14.1304 6.79827 14.3835 6.84804 14.6392 6.84803V6.84811ZM14.6392 6.04394C14.4151 6.04392 14.196 5.97822 14.0097 5.85517C13.8234 5.73212 13.6781 5.55723 13.5923 5.35261C13.5353 5.21674 13.506 5.0711 13.506 4.92401C13.506 4.77693 13.5353 4.63129 13.5923 4.49542C13.6492 4.35953 13.7327 4.23607 13.8379 4.13207C13.9431 4.02808 14.068 3.9456 14.2055 3.88934C14.3603 3.82596 14.5274 3.79731 14.6948 3.80544C14.8622 3.81357 15.0256 3.85828 15.1734 3.93636C15.3212 4.01443 15.4496 4.12393 15.5494 4.25696C15.6492 4.39 15.718 4.54325 15.7507 4.7057C15.7833 4.86814 15.7792 5.03572 15.7385 5.19639C15.6978 5.35705 15.6215 5.50678 15.5152 5.63481C15.4089 5.76284 15.2752 5.86598 15.1237 5.93679C14.9722 6.00761 14.8067 6.04434 14.6392 6.04434V6.04394ZM14.9365 20.1221C14.5713 20.2 14.1898 20.1314 13.8758 19.9313C13.6416 19.7821 13.4574 19.5676 13.3466 19.315C13.2357 19.0623 13.2031 18.7828 13.253 18.5118C13.3029 18.2409 13.433 17.9906 13.6268 17.7927C13.8206 17.5948 14.0694 17.4582 14.3418 17.4001C14.7044 17.3285 15.0811 17.4007 15.3903 17.6011C15.6996 17.8016 15.9168 18.1142 15.9949 18.4715C16.0729 18.8288 16.0057 19.2021 15.8077 19.5108C15.6097 19.8196 15.2968 20.039 14.9365 20.1217V20.1221Z" fill="#2DD0ED"/>
</svg>
