<svg width="21" height="36" viewBox="0 0 21 36" fill="none" xmlns="http://www.w3.org/2000/svg">
<path d="M5.33342 33C8.18542 33 10.5001 30.76 10.5001 28V23H5.33342C2.48142 23 0.166748 25.24 0.166748 28C0.166748 30.76 2.48142 33 5.33342 33Z" fill="#0ACF83"/>
<path d="M0.166748 18C0.166748 15.24 2.48142 13 5.33342 13H10.5001V23H5.33342C2.48142 23 0.166748 20.76 0.166748 18Z" fill="#A259FF"/>
<path d="M0.166748 8C0.166748 5.24 2.48142 3 5.33342 3H10.5001V13H5.33342C2.48142 13 0.166748 10.76 0.166748 8Z" fill="#F24E1E"/>
<path d="M10.5 3H15.6667C18.5187 3 20.8334 5.24 20.8334 8C20.8334 10.76 18.5187 13 15.6667 13H10.5V3Z" fill="#FF7262"/>
<path d="M20.8334 18C20.8334 20.76 18.5187 23 15.6667 23C12.8147 23 10.5 20.76 10.5 18C10.5 15.24 12.8147 13 15.6667 13C18.5187 13 20.8334 15.24 20.8334 18Z" fill="#1ABCFE"/>
</svg>
