<svg width="30" height="36" viewBox="0 0 30 36" fill="none" xmlns="http://www.w3.org/2000/svg">
<path d="M29.4343 16.6636L16.336 3.56576C15.5821 2.81141 14.3587 2.81141 13.6039 3.56576L10.8839 6.28573L14.3343 9.73615C15.1361 9.46521 16.0555 9.64697 16.6947 10.2861C17.3369 10.9294 17.5173 11.8567 17.2398 12.6611L20.565 15.9865C21.3695 15.7093 22.2978 15.8886 22.9403 16.5322C23.8383 17.4299 23.8383 18.8848 22.9403 19.7831C22.0421 20.6814 20.5872 20.6814 19.6885 19.7831C19.013 19.1069 18.8461 18.1149 19.1881 17.2827L16.0871 14.1816L16.0867 22.3424C16.3115 22.4535 16.5168 22.6003 16.6947 22.7771C17.5927 23.6748 17.5927 25.1298 16.6947 26.0288C15.7964 26.9267 14.3408 26.9267 13.4439 26.0288C12.5459 25.1298 12.5459 23.6749 13.4439 22.7773C13.6591 22.5619 13.9148 22.3914 14.1964 22.2756V14.0388C13.9144 13.9237 13.6585 13.7531 13.4439 13.5371C12.7635 12.8576 12.5999 11.8593 12.9485 11.0238L9.54728 7.62217L0.566017 16.603C-0.188672 17.358 -0.188672 18.5816 0.566017 19.3361L13.6646 32.4341C14.4187 33.1886 15.6419 33.1886 16.3969 32.4341L29.4342 19.3969C30.1886 18.6422 30.1887 17.4179 29.4343 16.6636Z" fill="#DE4C36"/>
</svg>
