<svg width="30" height="36" viewBox="0 0 30 36" fill="none" xmlns="http://www.w3.org/2000/svg">
<path d="M15.0001 3C6.71682 3 0 9.88562 0 18.3797C0 25.175 4.29797 30.9399 10.258 32.9736C11.0076 33.1159 11.2829 32.6399 11.2829 32.2337C11.2829 31.867 11.2689 30.6554 11.2625 29.3703C7.0894 30.3006 6.20884 27.5557 6.20884 27.5557C5.52651 25.778 4.54337 25.3054 4.54337 25.3054C3.18248 24.3508 4.64595 24.3703 4.64595 24.3703C6.15225 24.4789 6.9454 25.9553 6.9454 25.9553C8.28324 28.3065 10.4545 27.6267 11.3104 27.2339C11.445 26.2397 11.8338 25.5613 12.2627 25.1773C8.9311 24.7883 5.42863 23.4695 5.42863 17.5765C5.42863 15.8975 6.01461 14.5254 6.97422 13.4484C6.81847 13.061 6.30507 11.4967 7.11951 9.37829C7.11951 9.37829 8.37912 8.96492 11.2456 10.9548C12.442 10.6139 13.7253 10.4431 15.0001 10.4373C16.2748 10.4431 17.559 10.6139 18.7578 10.9548C21.6209 8.96492 22.8787 9.37829 22.8787 9.37829C23.6952 11.4967 23.1815 13.061 23.0258 13.4484C23.9875 14.5254 24.5695 15.8973 24.5695 17.5765C24.5695 23.4835 21.0604 24.7843 17.7203 25.165C18.2583 25.6423 18.7377 26.5783 18.7377 28.0131C18.7377 30.0709 18.7203 31.7271 18.7203 32.2337C18.7203 32.643 18.9903 33.1225 19.7507 32.9715C25.7074 30.9356 30 25.1727 30 18.3797C30 9.88562 23.2841 3 15.0001 3Z" fill="white"/>
<path d="M5.61807 24.9087C5.58513 24.9851 5.46772 25.008 5.36102 24.9557C5.2522 24.9055 5.19102 24.8013 5.22631 24.7246C5.25867 24.6459 5.37607 24.624 5.48466 24.6768C5.59371 24.7269 5.65583 24.832 5.61807 24.9087V24.9087ZM6.35592 25.5837C6.2844 25.6518 6.14452 25.6202 6.04958 25.5127C5.95147 25.4055 5.93311 25.2622 6.0057 25.1931C6.07946 25.1251 6.2151 25.1569 6.31345 25.2642C6.41157 25.3727 6.43063 25.5151 6.35581 25.5839L6.35592 25.5837ZM6.86214 26.4474C6.77015 26.5129 6.6198 26.4515 6.52698 26.3147C6.4351 26.178 6.4351 26.014 6.52898 25.9483C6.62215 25.8825 6.77015 25.9416 6.86426 26.0773C6.95602 26.2164 6.95602 26.3804 6.86202 26.4475L6.86214 26.4474ZM7.71811 27.4477C7.63588 27.5406 7.46083 27.5157 7.3326 27.3888C7.20154 27.2648 7.16496 27.0888 7.24742 26.9958C7.3306 26.9027 7.50671 26.9289 7.63588 27.0547C7.76611 27.1785 7.80588 27.3558 7.71823 27.4477H7.71811ZM8.82443 27.7854C8.78831 27.9058 8.61961 27.9606 8.44974 27.9094C8.28009 27.8567 8.16904 27.7156 8.20327 27.5939C8.23857 27.4727 8.40797 27.4156 8.57914 27.4704C8.74855 27.5228 8.85984 27.6629 8.82455 27.7854H8.82443ZM10.0837 27.9286C10.0879 28.0555 9.9438 28.1607 9.76546 28.163C9.58605 28.167 9.441 28.0643 9.43911 27.9396C9.43911 27.8115 9.57993 27.7073 9.75922 27.7042C9.93757 27.7006 10.0837 27.8026 10.0837 27.9286V27.9286ZM11.3206 27.88C11.342 28.0037 11.218 28.1309 11.0409 28.1647C10.8668 28.1972 10.7057 28.1209 10.6834 27.9982C10.6618 27.8713 10.7881 27.7443 10.9619 27.7114C11.1393 27.6798 11.298 27.7542 11.3206 27.88" fill="white"/>
</svg>
