<svg width="31" height="36" viewBox="0 0 31 36" fill="none" xmlns="http://www.w3.org/2000/svg">
<path d="M31 3H0V33H31V3Z" fill="#F7DF1E"/>
<path d="M20.8239 26.4376C21.4483 27.4242 22.2607 28.1495 23.6975 28.1495C24.9046 28.1495 25.6756 27.5657 25.6756 26.759C25.6756 25.7923 24.8834 25.45 23.5548 24.8876L22.8266 24.5852C20.7245 23.7185 19.328 22.6328 19.328 20.3376C19.328 18.2233 20.9927 16.6138 23.5942 16.6138C25.4463 16.6138 26.7779 17.2376 27.7374 18.8709L25.469 20.2804C24.9695 19.4138 24.4307 19.0723 23.5942 19.0723C22.741 19.0723 22.2002 19.5962 22.2002 20.2804C22.2002 21.1262 22.7415 21.4685 23.9913 21.9923L24.7196 22.2942C27.1946 23.3214 28.5921 24.3685 28.5921 26.7228C28.5921 29.2609 26.5318 30.6514 23.7649 30.6514C21.0596 30.6514 19.3118 29.4038 18.4566 27.7685L20.8239 26.4376ZM10.5334 26.6819C10.991 27.4676 11.4073 28.1319 12.4081 28.1319C13.3652 28.1319 13.969 27.7695 13.969 26.3604V16.7747H16.882V26.3985C16.882 29.3176 15.1135 30.6462 12.5321 30.6462C10.1997 30.6462 8.84903 29.4781 8.16211 28.0711L10.5334 26.6819Z" fill="black"/>
</svg>
