<svg width="14" height="36" viewBox="0 0 14 36" fill="none" xmlns="http://www.w3.org/2000/svg">
<path d="M7.03449 3.08203L7.80684 4.58567C7.98048 4.86315 8.16859 5.10875 8.39017 5.33749C9.03977 6.00243 9.64528 6.71212 10.2026 7.4617C11.5112 9.24282 12.3939 11.2208 13.0242 13.36C13.4023 14.6668 13.6076 16.0073 13.6229 17.3628C13.6862 21.4153 12.3459 24.8951 9.64364 27.7871C9.20408 28.2457 8.72922 28.6664 8.22376 29.0451C7.95606 29.0451 7.82945 28.8323 7.71911 28.6364C7.51818 28.2731 7.38446 27.8741 7.3248 27.4599C7.22984 26.9696 7.16744 26.4793 7.19819 25.9731V25.7444C7.17648 25.6956 6.94044 3.19734 7.03449 3.08203V3.08203Z" fill="#599636"/>
<path d="M7.03443 3.03225C7.00278 2.96663 6.97112 3.01631 6.93947 3.04819C6.95484 3.37629 6.84451 3.66877 6.67177 3.94812C6.48185 4.2256 6.23043 4.4384 5.97811 4.66713C4.57632 5.92516 3.47297 7.44474 2.58939 9.1443C1.41369 11.4316 0.807755 13.883 0.635922 16.4638C0.557241 17.3946 0.919898 20.6794 1.20297 21.6271C1.97531 24.1432 3.36264 26.2515 5.15964 28.0813C5.60098 28.5219 6.07307 28.9306 6.56144 29.3234C6.70343 29.3234 6.7188 29.1922 6.75136 29.0947C6.81361 28.8861 6.86107 28.673 6.89335 28.4572L7.20988 26.0068L7.03443 3.03225Z" fill="#6CAC48"/>
<path d="M7.80686 30.0405C7.83851 29.6655 8.01216 29.3543 8.20117 29.044C8.01125 28.9624 7.87017 28.8003 7.75983 28.6193C7.66469 28.448 7.58594 28.2675 7.52469 28.0803C7.30402 27.3941 7.25699 26.6742 7.19369 25.973V25.5483C7.11501 25.614 7.09873 26.1689 7.09873 26.2514C7.05271 26.9925 6.95783 27.7295 6.81475 28.4572C6.76772 28.7515 6.73607 29.0449 6.56152 29.3065C6.56152 29.3393 6.56152 29.3721 6.5769 29.4208C6.86087 30.287 6.93865 31.1691 6.98658 32.0681V32.3962C6.98658 32.7881 6.97121 32.7056 7.28503 32.8368C7.41164 32.8856 7.55273 32.9024 7.67934 32.9999C7.7743 32.9999 7.78968 32.9184 7.78968 32.8528L7.74265 32.3137V30.8101C7.72727 30.5476 7.7743 30.287 7.80596 30.0414L7.80686 30.0405Z" fill="#C2BFBF"/>
</svg>
