<svg width="28" height="36" viewBox="0 0 28 36" fill="none" xmlns="http://www.w3.org/2000/svg">
<path d="M12.7367 3.32006C13.5018 2.89428 14.4983 2.89235 15.2627 3.32006C19.1084 5.43283 22.9553 7.54229 26.8003 9.65635C27.5235 10.0524 28.0073 10.835 27.9999 11.6452V24.3564C28.0053 25.2002 27.4738 26.0014 26.7108 26.3885C22.8777 28.4897 19.0466 30.5934 15.2142 32.6945C14.4333 33.1286 13.4168 33.0952 12.6603 32.6255C11.5112 31.9778 10.36 31.3333 9.21076 30.6862C8.97592 30.5501 8.71119 30.4418 8.54536 30.2204C8.69196 30.0283 8.95406 30.0043 9.16703 29.9205C9.64671 29.7721 10.0873 29.5341 10.5279 29.3031C10.6394 29.2289 10.7754 29.2574 10.8822 29.3237C11.8649 29.8715 12.8389 30.4352 13.8248 30.9778C14.0352 31.0959 14.2481 30.9391 14.4279 30.8417C18.1893 28.7747 21.9554 26.7156 25.7161 24.648C25.8555 24.5828 25.9325 24.439 25.9212 24.2906C25.9238 20.0975 25.9218 15.9035 25.9225 11.7104C25.9384 11.542 25.8382 11.3871 25.6816 11.3182C21.8619 9.22672 18.0441 7.132 14.225 5.03996C14.1588 4.99573 14.0804 4.972 14.0001 4.97188C13.9198 4.97177 13.8414 4.99528 13.7751 5.03932C9.95595 7.132 6.13882 9.22865 2.31971 11.32C2.16367 11.3891 2.05894 11.5413 2.07751 11.7104C2.07817 15.9035 2.07751 20.0975 2.07751 24.2913C2.07089 24.3637 2.08724 24.4363 2.12438 24.4994C2.16151 24.5625 2.21764 24.613 2.28521 24.6442C3.30435 25.2061 4.32482 25.764 5.34462 26.324C5.91914 26.6247 6.62455 26.8033 7.25753 26.573C7.81611 26.3782 8.20766 25.824 8.197 25.2473C8.20228 21.0786 8.19437 16.9093 8.20096 12.7412C8.187 12.5562 8.36756 12.4033 8.55262 12.4207C9.0423 12.4175 9.53264 12.4143 10.0223 12.422C10.2267 12.4175 10.3674 12.6167 10.3421 12.8032C10.3401 16.9983 10.3474 21.1935 10.3388 25.3886C10.3401 26.5066 9.8677 27.7232 8.80405 28.2702C7.49369 28.9302 5.87409 28.7902 4.57955 28.1574C3.45886 27.6135 2.38939 26.9717 1.28859 26.3891C0.523624 26.0041 -0.00529017 25.1997 9.45848e-05 24.3566V11.6452C-0.00792759 10.8182 0.495052 10.0214 1.24079 9.63113C5.07319 7.5283 8.90493 5.42386 12.7367 3.32006Z" fill="#8CC84B"/>
<path d="M16.0801 12.1254C17.7516 12.0208 19.541 12.0634 21.0451 12.864C22.2096 13.4776 22.8552 14.7652 22.8758 16.0231C22.8433 16.1927 22.6608 16.2863 22.4942 16.2747C22.0093 16.274 21.5242 16.2811 21.0393 16.2715C20.8335 16.2792 20.714 16.0947 20.6882 15.9179C20.5488 15.3161 20.2112 14.72 19.6286 14.4297C18.7342 13.9943 17.6971 14.0162 16.7218 14.0252C16.0098 14.062 15.2442 14.1219 14.641 14.529C14.1779 14.8374 14.0372 15.4599 14.2025 15.9612C14.3583 16.3212 14.7857 16.4373 15.1354 16.5444C17.1497 17.0566 19.2843 17.0056 21.2602 17.6797C22.0782 17.9545 22.8784 18.4887 23.1584 19.3215C23.5247 20.4376 23.3642 21.7717 22.5474 22.6677C21.8851 23.405 20.9205 23.8064 19.9584 24.0243C18.6784 24.3018 17.3502 24.3089 16.0503 24.1857C14.8281 24.0502 13.5562 23.738 12.6127 22.9283C11.8058 22.2472 11.4118 21.1859 11.4509 20.1615C11.4602 19.9885 11.6374 19.8679 11.8078 19.8821C12.2962 19.8783 12.7846 19.877 13.2729 19.8828C13.468 19.8692 13.6126 20.0331 13.6226 20.2118C13.7127 20.7853 13.9344 21.3872 14.4487 21.7271C15.4412 22.3497 16.6866 22.3071 17.8231 22.3245C18.7647 22.2839 19.8217 22.2716 20.59 21.6666C20.9954 21.3214 21.1155 20.744 21.006 20.2473C20.8873 19.8279 20.4361 19.6325 20.0486 19.5047C18.0601 18.8932 15.9017 19.1151 13.9324 18.4235C13.1329 18.1488 12.3598 17.6294 12.0527 16.8308C11.6241 15.7006 11.8205 14.3026 12.7228 13.4368C13.6026 12.5757 14.8726 12.244 16.0801 12.1253V12.1254Z" fill="#8CC84B"/>
</svg>
