<svg width="31" height="36" viewBox="0 0 31 36" fill="none" xmlns="http://www.w3.org/2000/svg">
<path d="M15.8634 3C8.24747 3 8.72299 6.31996 8.72299 6.31996L8.73145 9.75953H15.9991V10.7922H5.84484C5.84484 10.7922 0.971436 10.2366 0.971436 17.9611C0.971436 25.6859 5.22506 25.4119 5.22506 25.4119H7.76361V21.8273C7.76361 21.8273 7.62675 17.5515 11.9493 17.5515H19.1576C19.1576 17.5515 23.2074 17.6173 23.2074 13.617V7.00284C23.2074 7.00284 23.8225 3 15.8634 3ZM11.8559 5.31305C12.0277 5.31289 12.1978 5.34678 12.3565 5.41277C12.5152 5.47877 12.6594 5.57557 12.7808 5.69765C12.9022 5.81972 12.9985 5.96467 13.0642 6.12419C13.1298 6.28372 13.1636 6.45469 13.1634 6.62733C13.1636 6.79997 13.1298 6.97094 13.0642 7.13047C12.9985 7.29 12.9022 7.43494 12.7808 7.55702C12.6594 7.67909 12.5152 7.7759 12.3565 7.84189C12.1978 7.90788 12.0277 7.94177 11.8559 7.94162C11.6842 7.94177 11.5141 7.90788 11.3554 7.84189C11.1967 7.7759 11.0525 7.67909 10.9311 7.55702C10.8097 7.43494 10.7134 7.29 10.6477 7.13047C10.5821 6.97094 10.5483 6.79997 10.5485 6.62733C10.5483 6.45469 10.5821 6.28372 10.6477 6.12419C10.7134 5.96467 10.8097 5.81972 10.9311 5.69765C11.0525 5.57557 11.1967 5.47877 11.3554 5.41277C11.5141 5.34678 11.6842 5.31289 11.8559 5.31305V5.31305Z" fill="url(#paint0_linear_150_4038)"/>
<path d="M16.0796 33.0001C23.6954 33.0001 23.2199 29.6801 23.2199 29.6801L23.2115 26.2407H15.9436V25.208H26.098C26.098 25.208 30.9714 25.7636 30.9714 18.0388C30.9714 10.3142 26.7177 10.5881 26.7177 10.5881H24.1792V14.1726C24.1792 14.1726 24.316 18.4485 19.9935 18.4485H12.7852C12.7852 18.4485 8.73538 18.3827 8.73538 22.383V28.9973C8.73538 28.9973 8.12042 33.0001 16.0794 33.0001H16.0796ZM20.087 30.6873C19.9152 30.6874 19.7451 30.6535 19.5864 30.5875C19.4277 30.5215 19.2835 30.4247 19.1621 30.3027C19.0407 30.1806 18.9444 30.0356 18.8787 29.8761C18.8131 29.7166 18.7794 29.5456 18.7795 29.373C18.7793 29.2003 18.813 29.0293 18.8787 28.8698C18.9443 28.7103 19.0406 28.5653 19.1621 28.4432C19.2835 28.3211 19.4277 28.2243 19.5864 28.1583C19.7451 28.0923 19.9152 28.0584 20.087 28.0586C20.2587 28.0584 20.4288 28.0923 20.5875 28.1583C20.7462 28.2243 20.8904 28.3211 21.0118 28.4432C21.1333 28.5652 21.2296 28.7102 21.2952 28.8697C21.3609 29.0292 21.3946 29.2002 21.3944 29.3729C21.3946 29.5455 21.3609 29.7165 21.2952 29.876C21.2296 30.0355 21.1333 30.1805 21.0118 30.3025C20.8904 30.4246 20.7462 30.5214 20.5875 30.5874C20.4288 30.6534 20.2587 30.6873 20.087 30.6871V30.6873Z" fill="url(#paint1_linear_150_4038)"/>
<defs>
<linearGradient id="paint0_linear_150_4038" x1="3.85442" y1="5.69832" x2="18.7982" y2="20.4161" gradientUnits="userSpaceOnUse">
<stop stop-color="#387EB8"/>
<stop offset="1" stop-color="#366994"/>
</linearGradient>
<linearGradient id="paint1_linear_150_4038" x1="12.9798" y1="15.1993" x2="29.0238" y2="30.2874" gradientUnits="userSpaceOnUse">
<stop stop-color="#FFE052"/>
<stop offset="1" stop-color="#FFC331"/>
</linearGradient>
</defs>
</svg>
