<svg width="31" height="36" viewBox="0 0 31 36" fill="none" xmlns="http://www.w3.org/2000/svg">
<path d="M15.5001 20.6447C16.9925 20.6447 18.2024 19.4606 18.2024 17.9999C18.2024 16.5391 16.9925 15.355 15.5001 15.355C14.0077 15.355 12.7979 16.5391 12.7979 17.9999C12.7979 19.4606 14.0077 20.6447 15.5001 20.6447Z" fill="#61DAFB"/>
<path d="M15.5 23.4186C23.5081 23.4186 30 20.9925 30 17.9998C30 15.0071 23.5081 12.5811 15.5 12.5811C7.49187 12.5811 1 15.0071 1 17.9998C1 20.9925 7.49187 23.4186 15.5 23.4186Z" stroke="#61DAFB" stroke-width="1.5"/>
<path d="M10.7054 20.7094C14.7095 27.4973 20.102 31.787 22.75 30.2906C25.398 28.7943 24.2987 22.0785 20.2947 15.2906C16.2906 8.5027 10.898 4.21303 8.25005 5.70938C5.60204 7.20573 6.70135 13.9215 10.7054 20.7094Z" stroke="#61DAFB" stroke-width="1.5"/>
<path d="M10.7054 15.2908C6.70135 22.0787 5.60205 28.7945 8.25005 30.2908C10.8981 31.7871 16.2906 27.4975 20.2947 20.7096C24.2987 13.9216 25.398 7.20592 22.75 5.70957C20.102 4.21322 14.7095 8.50288 10.7054 15.2908Z" stroke="#61DAFB" stroke-width="1.5"/>
</svg>
