<svg width="30" height="36" viewBox="0 0 30 36" fill="none" xmlns="http://www.w3.org/2000/svg">
<path d="M25.8321 19.7967C24.7855 19.8025 23.8759 20.0714 23.1142 20.4689C22.8348 19.8785 22.5553 19.3524 22.506 18.9666C22.4512 18.5165 22.3854 18.2418 22.4512 17.704C22.5169 17.1662 22.8128 16.4005 22.8074 16.342C22.8019 16.2836 22.7416 16.0089 22.1388 16.003C21.5361 15.9972 21.0155 16.1258 20.9552 16.2953C20.895 16.4648 20.7799 16.8506 20.7032 17.2481C20.5991 17.8326 19.4977 19.9194 18.8675 21.0125C18.6648 20.5858 18.4894 20.2117 18.4511 19.9136C18.3963 19.4635 18.3305 19.1887 18.3963 18.651C18.462 18.1132 18.7579 17.3474 18.7524 17.289C18.747 17.2305 18.6867 16.9558 18.0839 16.95C17.4812 16.9441 16.9606 17.0727 16.9003 17.2422C16.8401 17.4117 16.7743 17.8092 16.6483 18.195C16.5222 18.5808 15.0592 22.0647 14.6756 22.9649C14.4783 23.4267 14.3085 23.7949 14.1879 24.0463C14.1879 24.0463 14.1824 24.0638 14.166 24.093C14.0619 24.3093 14.0016 24.4262 14.0016 24.4262C14.0016 24.4262 14.0016 24.4262 14.0016 24.4321C13.9194 24.5899 13.8317 24.736 13.7879 24.736C13.755 24.736 13.6948 24.3151 13.7989 23.7423C14.0181 22.5323 14.5386 20.6501 14.5331 20.5858C14.5331 20.5507 14.6318 20.2234 14.1934 20.0539C13.766 19.8843 13.6126 20.1649 13.5742 20.1649C13.5358 20.1649 13.5084 20.2643 13.5084 20.2643C13.5084 20.2643 13.9852 18.1483 12.5988 18.1483C11.7331 18.1483 10.5385 19.1595 9.9467 20.0714C9.57408 20.2877 8.77954 20.7495 7.9302 21.2463C7.6069 21.4392 7.27264 21.6321 6.96031 21.8133C6.93839 21.7899 6.91647 21.7607 6.89455 21.7373C5.21779 19.8259 2.11632 18.4756 2.24784 15.9095C2.29715 14.9742 2.59853 12.5192 8.20418 9.538C12.818 7.11217 16.4894 7.78439 17.125 9.27496C18.0346 11.4027 15.1578 15.3542 10.3905 15.927C8.57131 16.1433 7.61786 15.3951 7.37676 15.1145C7.12469 14.8222 7.08634 14.8047 6.99318 14.8632C6.83975 14.9508 6.93839 15.2139 6.99318 15.3659C7.13565 15.7633 7.72197 16.4648 8.71378 16.8097C9.59052 17.1136 11.7221 17.2831 14.303 16.2193C17.1907 15.0268 19.4484 11.7125 18.7853 8.93593C18.1223 6.11845 13.7386 5.18903 9.59052 6.76144C7.12469 7.6967 4.45064 9.16974 2.5273 11.087C0.242295 13.3667 -0.119359 15.3483 0.0285907 16.1784C0.560113 19.1244 4.36845 21.0417 5.89178 22.4622C5.81507 22.5089 5.74383 22.5498 5.68355 22.5849C4.92189 22.9882 2.01769 24.6074 1.29438 26.3201C0.47244 28.2608 1.42589 29.652 2.05605 29.839C4.01227 30.4177 6.02329 29.3773 7.10278 27.6587C8.18226 25.9402 8.05075 23.7072 7.5521 22.6843C7.54662 22.6726 7.54114 22.6609 7.53018 22.6492C7.72745 22.5265 7.9302 22.3979 8.12746 22.2751C8.51652 22.0296 8.90009 21.8016 9.22887 21.6146C9.04256 22.1582 8.90557 22.807 8.83981 23.7423C8.75762 24.8412 9.17955 26.2675 9.73299 26.8287C9.97957 27.0742 10.27 27.08 10.4563 27.08C11.1029 27.08 11.3933 26.5072 11.7166 25.8291C12.1111 24.9991 12.4673 24.0346 12.4673 24.0346C12.4673 24.0346 12.0235 26.6416 13.229 26.6416C13.6674 26.6416 14.1112 26.0337 14.3085 25.7239C14.3085 25.7297 14.3085 25.7297 14.3085 25.7297C14.3085 25.7297 14.3194 25.7122 14.3413 25.6713C14.3852 25.5953 14.4126 25.5485 14.4126 25.5485C14.4126 25.5485 14.4126 25.5427 14.4126 25.5368C14.5879 25.2095 14.9825 24.4671 15.5688 23.2338C16.325 21.6438 17.0538 19.6564 17.0538 19.6564C17.0538 19.6564 17.1195 20.1415 17.3442 20.9482C17.4757 21.4217 17.7497 21.9419 17.9689 22.4446C17.7935 22.7077 17.6839 22.8538 17.6839 22.8538C17.6839 22.8538 17.6839 22.8538 17.6894 22.8596C17.5469 23.0584 17.3935 23.2747 17.2236 23.4851C16.6263 24.245 15.914 25.116 15.8154 25.3673C15.7003 25.6654 15.7277 25.8817 15.9469 26.0571C16.1058 26.1857 16.3907 26.2032 16.6811 26.1857C17.2181 26.1448 17.5962 26.0045 17.7825 25.9168C18.073 25.8057 18.4127 25.6362 18.7305 25.3849C19.3168 24.9231 19.673 24.2625 19.6401 23.3916C19.6237 22.9123 19.4757 22.4329 19.2949 21.9828C19.3497 21.901 19.399 21.8192 19.4538 21.7373C20.3799 20.2935 21.0977 18.7094 21.0977 18.7094C21.0977 18.7094 21.1635 19.1946 21.3881 20.0013C21.4977 20.4104 21.7224 20.8547 21.9197 21.2872C21.0484 22.0413 20.5114 22.9181 20.3196 23.4909C19.9744 24.5548 20.2429 25.0341 20.7525 25.1452C20.9826 25.1978 21.3114 25.0809 21.5525 24.9698C21.8594 24.8646 22.221 24.6834 22.5663 24.4145C23.1526 23.9527 23.717 23.3097 23.6841 22.4388C23.6677 22.0413 23.569 21.6497 23.432 21.2697C24.1718 20.9424 25.1252 20.7612 26.3417 20.9131C28.95 21.2405 29.4651 22.9766 29.3665 23.7072C29.2678 24.4379 28.7199 24.8354 28.539 24.9581C28.3582 25.0809 28.2979 25.1218 28.3144 25.2095C28.3363 25.3381 28.424 25.3322 28.5774 25.3089C28.7911 25.2679 29.9473 24.7185 29.9966 23.374C30.0788 21.6555 28.5445 19.7791 25.8321 19.7967ZM5.71095 27.0333C4.84517 28.0387 3.63966 28.4186 3.11909 28.0971C2.56017 27.7522 2.77936 26.2675 3.8424 25.2036C4.489 24.5548 5.3219 23.9527 5.87534 23.5845C6.00137 23.5026 6.18768 23.3857 6.41234 23.2396C6.4507 23.2162 6.47262 23.2045 6.47262 23.2045C6.51646 23.1753 6.56029 23.1461 6.60413 23.1168C6.99318 24.6366 6.62057 25.9752 5.71095 27.0333ZM12.0125 22.4622C11.7111 23.2454 11.081 25.2504 10.6974 25.1393C10.3686 25.0458 10.1659 23.526 10.6316 22.0238C10.8673 21.2697 11.3659 20.3695 11.6563 20.0188C12.1276 19.4576 12.6481 19.2706 12.7742 19.4985C12.9331 19.7967 12.1988 21.9711 12.0125 22.4622ZM17.2127 25.116C17.0866 25.1861 16.9661 25.2329 16.9113 25.1978C16.8729 25.1744 16.9661 25.0809 16.9661 25.0809C16.9661 25.0809 17.6182 24.3327 17.8757 23.9937C18.0237 23.7949 18.199 23.5611 18.3853 23.2981C18.3853 23.3214 18.3853 23.3507 18.3853 23.374C18.3853 24.2684 17.5743 24.8705 17.2127 25.116ZM21.2237 24.1398C21.1306 24.0696 21.147 23.8358 21.4594 23.1052C21.5799 22.8187 21.8649 22.3394 22.3525 21.8776C22.4073 22.0647 22.4457 22.2459 22.4402 22.4154C22.4347 23.5436 21.6786 23.9644 21.2237 24.1398Z" fill="#CD6799"/>
</svg>
