<svg width="30" height="36" viewBox="0 0 30 36" fill="none" xmlns="http://www.w3.org/2000/svg">
<path d="M14.9995 9C10.9994 9 8.49945 11 7.49933 14.9997C8.99951 12.9997 10.7495 12.25 12.7494 12.7498C13.8906 13.035 14.7062 13.8631 15.6091 14.7795C17.0797 16.2722 18.7817 17.9998 22.4997 17.9998C26.4995 17.9998 28.9998 15.9998 29.9995 11.9997C28.4997 13.9997 26.7497 14.7498 24.7494 14.25C23.6086 13.9648 22.7931 13.1367 21.8901 12.2203C20.4195 10.7276 18.7172 9 14.9995 9V9ZM7.49933 17.9998C3.49958 17.9998 0.999262 19.9999 -0.000488281 23.9999C1.49932 21.9999 3.24936 21.2498 5.24961 21.75C6.39041 22.0355 7.20597 22.8633 8.10893 23.7793C9.57948 25.272 11.2819 27 14.9995 27C18.9996 27 21.4996 25 22.4997 20.9999C20.9995 22.9999 19.2495 23.75 17.2496 23.2498C16.1084 22.965 15.2929 22.1365 14.3899 21.2205C12.9194 19.7278 11.2173 17.9998 7.49933 17.9998V17.9998Z" fill="#06B6D4"/>
</svg>
