<svg width="30" height="36" viewBox="0 0 30 36" fill="none" xmlns="http://www.w3.org/2000/svg">
<path d="M0 3H30V33H0V3Z" fill="#017ACB"/>
<path d="M14.4047 14.1096H15.8438V16.5939H11.9531V27.6471L11.85 27.6752C11.7094 27.7127 9.85782 27.7127 9.45938 27.6705L9.14063 27.6424V16.5939H5.25V14.1096L6.48281 14.0955C7.15782 14.0861 8.89219 14.0861 10.3359 14.0955C11.7797 14.1049 13.6078 14.1096 14.4047 14.1096V14.1096ZM25.3875 26.4752C24.8157 27.0799 24.2016 27.4174 23.1797 27.6939C22.7344 27.8158 22.6594 27.8205 21.6563 27.8158C20.6532 27.8111 20.5735 27.8111 20.086 27.6846C18.825 27.3611 17.8078 26.7283 17.1141 25.833C16.9172 25.5799 16.5938 25.0549 16.5938 24.9893C16.5938 24.9705 16.6406 24.9283 16.7016 24.9002C16.7625 24.8721 16.8891 24.7924 16.9922 24.7314C17.0953 24.6705 17.2828 24.558 17.4094 24.4924C17.536 24.4268 17.9016 24.2111 18.2203 24.0189C18.5391 23.8268 18.8297 23.6721 18.8625 23.6721C18.8953 23.6721 18.9563 23.7377 19.0031 23.8174C19.2844 24.2908 19.9406 24.8955 20.4047 25.1018C20.6907 25.2236 21.3235 25.3596 21.6282 25.3596C21.9094 25.3596 22.425 25.2377 22.7016 25.1111C22.9969 24.9752 23.1469 24.8393 23.325 24.5674C23.4469 24.3752 23.461 24.3236 23.4563 23.958C23.4563 23.6205 23.4375 23.5268 23.3438 23.3721C23.0813 22.9408 22.725 22.7158 21.2813 22.0783C19.7906 21.4174 19.1203 21.0236 18.5766 20.4939C18.1735 20.1002 18.0938 19.9924 17.8406 19.5002C17.5125 18.8674 17.4703 18.6611 17.4656 17.7189C17.461 17.058 17.475 16.8424 17.5453 16.6174C17.6438 16.2799 17.9625 15.6283 18.1078 15.4643C18.4078 15.1127 18.5156 15.0049 18.7266 14.8314C19.3641 14.3064 20.3578 13.9596 21.3094 13.9268C21.4172 13.9268 21.7735 13.9455 22.1063 13.9689C23.0625 14.0486 23.7141 14.283 24.3422 14.7846C24.8157 15.1596 25.5328 16.0408 25.4625 16.158C25.4157 16.2283 23.5453 17.4752 23.4235 17.5127C23.3485 17.5361 23.2969 17.508 23.1938 17.3861C22.5563 16.6221 22.2985 16.458 21.6797 16.4205C21.2391 16.3924 21.0047 16.4439 20.7094 16.6408C20.4 16.8471 20.25 17.1611 20.25 17.5971C20.2547 18.2346 20.4985 18.5346 21.3985 18.9799C21.9797 19.2658 22.4766 19.5002 22.5141 19.5002C22.5703 19.5002 23.775 20.1002 24.0891 20.2877C25.5516 21.1455 26.1469 22.0268 26.3016 23.5455C26.4141 24.6893 26.0907 25.7346 25.3875 26.4752V26.4752Z" fill="white"/>
</svg>
