<svg width="30" height="36" viewBox="0 0 30 36" fill="none" xmlns="http://www.w3.org/2000/svg">
<path d="M29.9007 7.44042L15.8082 32.6085C15.5172 33.1282 14.7697 33.1312 14.4744 32.6142L0.102501 7.44276C-0.219296 6.87933 0.263166 6.19675 0.902541 6.31098L15.0102 8.82934C15.1002 8.8454 15.1923 8.84524 15.2823 8.82887L29.0948 6.31449C29.7321 6.19851 30.2168 6.87582 29.9007 7.44042V7.44042Z" fill="url(#paint0_linear_150_4068)"/>
<path d="M21.7302 3.00739L11.3014 5.04834C11.2181 5.06464 11.1426 5.10814 11.0867 5.172C11.0308 5.23585 10.9978 5.31645 10.9927 5.4011L10.3513 16.2222C10.3477 16.2816 10.3581 16.3409 10.3816 16.3956C10.405 16.4502 10.4409 16.4986 10.4864 16.537C10.5318 16.5754 10.5856 16.6026 10.6435 16.6166C10.7013 16.6306 10.7617 16.6309 10.8197 16.6176L13.7232 15.9483C13.9949 15.8857 14.2404 16.1247 14.1845 16.3975L13.3219 20.6165C13.2638 20.9004 13.5307 21.1432 13.8083 21.0589L15.6017 20.5148C15.8797 20.4305 16.1469 20.674 16.0881 20.9581L14.7172 27.5851C14.6314 27.9997 15.1835 28.2257 15.4137 27.8703L15.5675 27.633L24.0655 10.6948C24.2079 10.4113 23.9624 10.0879 23.6507 10.148L20.6618 10.7241C20.381 10.7782 20.1421 10.5169 20.2213 10.2426L22.172 3.48877C22.2513 3.21373 22.0114 2.95238 21.7303 3.00739H21.7302Z" fill="url(#paint1_linear_150_4068)"/>
<defs>
<linearGradient id="paint0_linear_150_4068" x1="-0.2484" y1="8.34156" x2="14.9255" y2="28.975" gradientUnits="userSpaceOnUse">
<stop stop-color="#41D1FF"/>
<stop offset="1" stop-color="#BD34FE"/>
</linearGradient>
<linearGradient id="paint1_linear_150_4068" x1="16.3176" y1="3.56155" x2="19.4365" y2="24.9839" gradientUnits="userSpaceOnUse">
<stop stop-color="#FFEA83"/>
<stop offset="0.083" stop-color="#FFDD35"/>
<stop offset="1" stop-color="#FFA800"/>
</linearGradient>
</defs>
</svg>
