<svg width="30" height="36" viewBox="0 0 30 36" fill="none" xmlns="http://www.w3.org/2000/svg">
<path d="M0.285425 13.4612C0.285425 13.4612 -0.445263 12.9288 0.431562 12.2179L2.47444 10.3714C2.47444 10.3714 3.05899 9.74979 3.67703 10.2914L22.5288 24.7185V31.6366C22.5288 31.6366 22.5196 32.723 21.1405 32.6029L0.285425 13.4612Z" fill="#2489CA"/>
<path d="M5.14447 17.9209L0.285389 22.3863C0.285389 22.3863 -0.213914 22.7617 0.285389 23.4326L2.54139 25.5068C2.54139 25.5068 3.07723 26.0884 3.86881 25.4268L9.02016 21.4784L5.14447 17.9209Z" fill="#1070B3"/>
<path d="M13.6754 17.9573L22.5867 11.0792L22.5289 4.19803C22.5289 4.19803 22.1483 2.69623 20.8787 3.4779L9.02026 14.3875L13.6754 17.9573Z" fill="#0877B9"/>
<path d="M21.1405 32.6125C21.6581 33.1479 22.2852 32.9725 22.2852 32.9725L29.2298 29.5135C30.1188 28.901 29.994 28.1409 29.994 28.1409V7.48503C29.994 6.57718 29.0745 6.26328 29.0745 6.26328L23.0555 3.33047C21.7403 2.50879 20.8787 3.47819 20.8787 3.47819C20.8787 3.47819 21.9869 2.67189 22.5288 4.19831V31.5107C22.5288 31.6984 22.4892 31.8831 22.4101 32.0493C22.2517 32.3724 21.9077 32.674 21.0826 32.5478L21.1405 32.6125Z" fill="#3C99D4"/>
</svg>
